<svg width="658" height="74" viewBox="0 0 658 74" fill="none" xmlns="http://www.w3.org/2000/svg">
<path d="M606.6 33.4L605.08 41.2H607.48C608.013 41.2 608.467 41.3867 608.84 41.76C609.213 42.1333 609.4 42.5867 609.4 43.12C609.4 43.6267 609.213 44.0667 608.84 44.44C608.467 44.7867 608.013 44.96 607.48 44.96H604.32L603.28 50.32C603.2 50.7467 602.987 51.0933 602.64 51.36C602.32 51.6267 601.92 51.76 601.44 51.76C600.853 51.76 600.373 51.5867 600 51.24C599.627 50.8667 599.44 50.4 599.44 49.84C599.44 49.6 599.453 49.4267 599.48 49.32L600.32 44.96H596L594.92 50.32C594.84 50.7467 594.627 51.0933 594.28 51.36C593.96 51.6267 593.587 51.76 593.16 51.76C592.493 51.76 591.973 51.5333 591.6 51.08C591.227 50.6 591.093 50.0133 591.2 49.32L592.04 44.96H590.92C590.387 44.96 589.933 44.7733 589.56 44.4C589.187 44.0267 589 43.5733 589 43.04C589 42.5333 589.187 42.1067 589.56 41.76C589.933 41.3867 590.387 41.2 590.92 41.2H592.8L594.32 33.4H591.72C591.187 33.4 590.733 33.2133 590.36 32.84C589.987 32.4667 589.8 32.0133 589.8 31.48C589.8 30.9733 589.987 30.5467 590.36 30.2C590.733 29.8267 591.187 29.64 591.72 29.64H595.08L596.08 24.48C596.16 24.0533 596.36 23.7067 596.68 23.44C597 23.1733 597.4 23.04 597.88 23.04C598.467 23.04 598.947 23.2267 599.32 23.6C599.693 23.9733 599.88 24.44 599.88 25C599.88 25.2133 599.867 25.3733 599.84 25.48L599 29.64H603.32L604.32 24.48C604.4 24.0533 604.6 23.7067 604.92 23.44C605.267 23.1733 605.68 23.04 606.16 23.04C606.853 23.04 607.387 23.28 607.76 23.76C608.133 24.2133 608.267 24.7867 608.16 25.48L607.36 29.64H608.28C608.813 29.64 609.267 29.8267 609.64 30.2C610.013 30.5733 610.2 31.0267 610.2 31.56C610.2 32.0667 610.013 32.5067 609.64 32.88C609.267 33.2267 608.813 33.4 608.28 33.4H606.6ZM601.08 41.2L602.6 33.4H598.28L596.72 41.2H601.08Z" fill="#FFD666"/>
<path d="M623.584 51.92C620.171 51.92 617.558 50.68 615.744 48.2C613.958 45.72 613.064 42.1333 613.064 37.44C613.064 32.7733 613.958 29.2 615.744 26.72C617.558 24.24 620.171 23 623.584 23C626.998 23 629.598 24.24 631.384 26.72C633.198 29.2 634.104 32.7733 634.104 37.44C634.104 42.1333 633.198 45.72 631.384 48.2C629.598 50.68 626.998 51.92 623.584 51.92ZM623.584 47.16C625.131 47.16 626.251 46.3867 626.944 44.84C627.664 43.2933 628.024 40.8267 628.024 37.44C628.024 34.0267 627.664 31.56 626.944 30.04C626.251 28.52 625.131 27.76 623.584 27.76C622.038 27.76 620.904 28.5333 620.184 30.08C619.491 31.6 619.144 34.0533 619.144 37.44C619.144 40.8267 619.491 43.2933 620.184 44.84C620.904 46.3867 622.038 47.16 623.584 47.16Z" fill="#FFD666"/>
<path d="M652.249 37.04C653.902 37.52 655.169 38.36 656.049 39.56C656.955 40.7333 657.409 42.1733 657.409 43.88C657.409 45.5067 656.982 46.92 656.129 48.12C655.302 49.32 654.102 50.2533 652.529 50.92C650.955 51.56 649.129 51.88 647.049 51.88C645.315 51.88 643.649 51.6267 642.049 51.12C640.475 50.6133 639.115 49.9067 637.969 49C637.569 48.7067 637.275 48.3867 637.089 48.04C636.929 47.6933 636.849 47.2933 636.849 46.84C636.849 46.1467 637.049 45.56 637.449 45.08C637.849 44.5733 638.329 44.32 638.889 44.32C639.209 44.32 639.502 44.3733 639.769 44.48C640.035 44.56 640.369 44.72 640.769 44.96C641.942 45.6267 642.955 46.1333 643.809 46.48C644.662 46.8267 645.662 47 646.809 47C648.435 47 649.622 46.7067 650.369 46.12C651.115 45.5067 651.489 44.56 651.489 43.28C651.489 42.0267 651.102 41.12 650.329 40.56C649.555 40 648.315 39.72 646.609 39.72H644.249C643.555 39.72 643.009 39.48 642.609 39C642.209 38.52 642.009 37.9467 642.009 37.28C642.009 36.64 642.209 36.08 642.609 35.6C643.009 35.12 643.555 34.88 644.249 34.88H645.929C647.555 34.88 648.755 34.6 649.529 34.04C650.329 33.48 650.729 32.6133 650.729 31.44C650.729 30.32 650.395 29.4533 649.729 28.84C649.062 28.2 648.129 27.88 646.929 27.88C645.942 27.88 645.022 28.0533 644.169 28.4C643.315 28.7467 642.329 29.2533 641.209 29.92C640.809 30.16 640.475 30.3333 640.209 30.44C639.942 30.52 639.649 30.56 639.329 30.56C638.769 30.56 638.289 30.32 637.889 29.84C637.489 29.3333 637.289 28.7333 637.289 28.04C637.289 27.56 637.369 27.16 637.529 26.84C637.715 26.4933 638.009 26.1733 638.409 25.88C639.529 24.9733 640.862 24.2667 642.409 23.76C643.982 23.2533 645.582 23 647.209 23C649.102 23 650.769 23.32 652.209 23.96C653.649 24.5733 654.755 25.4533 655.529 26.6C656.302 27.7467 656.689 29.08 656.689 30.6C656.689 32.12 656.289 33.4533 655.489 34.6C654.715 35.72 653.635 36.5333 652.249 37.04Z" fill="#FFD666"/>
<path d="M280.52 23.08C281.4 23.08 282.107 23.3733 282.64 23.96C283.2 24.52 283.48 25.2533 283.48 26.16V48.6C283.48 49.5333 283.2 50.2933 282.64 50.88C282.107 51.44 281.4 51.72 280.52 51.72C279.56 51.72 278.787 51.3733 278.2 50.68L264.8 33.52V48.6C264.8 49.5333 264.533 50.2933 264 50.88C263.493 51.44 262.8 51.72 261.92 51.72C261.04 51.72 260.333 51.44 259.8 50.88C259.267 50.2933 259 49.5333 259 48.6V26.16C259 25.2533 259.267 24.52 259.8 23.96C260.36 23.3733 261.08 23.08 261.96 23.08C262.947 23.08 263.707 23.4267 264.24 24.12L277.64 41.16V26.16C277.64 25.2533 277.907 24.52 278.44 23.96C278.973 23.3733 279.667 23.08 280.52 23.08Z" fill="#15C3D6"/>
<path d="M304.358 45.64C304.891 45.64 305.318 45.8533 305.638 46.28C305.985 46.7067 306.158 47.2533 306.158 47.92C306.158 48.3733 306.025 48.8 305.758 49.2C305.491 49.5733 305.118 49.8933 304.638 50.16C303.731 50.64 302.678 51.04 301.478 51.36C300.278 51.6533 299.171 51.8 298.158 51.8C296.025 51.8 294.158 51.3867 292.558 50.56C290.985 49.7333 289.771 48.56 288.918 47.04C288.065 45.4933 287.638 43.68 287.638 41.6C287.638 39.6 288.051 37.8267 288.878 36.28C289.705 34.7333 290.851 33.5333 292.318 32.68C293.785 31.8 295.451 31.36 297.318 31.36C299.105 31.36 300.665 31.76 301.998 32.56C303.358 33.3333 304.411 34.4533 305.158 35.92C305.905 37.36 306.278 39.0533 306.278 41C306.278 41.5867 306.131 42.04 305.838 42.36C305.571 42.6533 305.185 42.8 304.678 42.8H293.478C293.665 44.3733 294.145 45.52 294.918 46.24C295.691 46.9333 296.798 47.28 298.238 47.28C299.011 47.28 299.705 47.1867 300.318 47C300.931 46.8133 301.611 46.56 302.358 46.24C302.731 46.08 303.091 45.9467 303.438 45.84C303.785 45.7067 304.091 45.64 304.358 45.64ZM297.478 35.52C296.331 35.52 295.411 35.8933 294.718 36.64C294.025 37.36 293.611 38.4133 293.478 39.8H301.198C301.118 38.3867 300.758 37.32 300.118 36.6C299.505 35.88 298.625 35.52 297.478 35.52Z" fill="#15C3D6"/>
<path d="M327.056 47.04C327.642 47.6533 327.936 48.32 327.936 49.04C327.936 49.76 327.656 50.4 327.096 50.96C326.562 51.4933 325.936 51.76 325.216 51.76C324.496 51.76 323.829 51.44 323.216 50.8L318.016 45.2L312.856 50.8C312.242 51.44 311.576 51.76 310.856 51.76C310.109 51.76 309.456 51.4933 308.896 50.96C308.362 50.4 308.096 49.7467 308.096 49C308.096 48.3067 308.389 47.6533 308.976 47.04L314.376 41.4L309.336 36.16C308.749 35.5467 308.456 34.8933 308.456 34.2C308.456 33.4533 308.722 32.8133 309.256 32.28C309.816 31.7467 310.456 31.48 311.176 31.48C311.922 31.48 312.602 31.8 313.216 32.44L318.016 37.56L322.856 32.44C323.469 31.8 324.149 31.48 324.896 31.48C325.616 31.48 326.242 31.7467 326.776 32.28C327.336 32.8133 327.616 33.4533 327.616 34.2C327.616 34.8933 327.322 35.5467 326.736 36.16L321.656 41.4L327.056 47.04Z" fill="#15C3D6"/>
<path d="M342.057 47.32C342.857 47.3733 343.444 47.5733 343.817 47.92C344.191 48.2667 344.377 48.7733 344.377 49.44C344.377 50.2133 344.071 50.8 343.457 51.2C342.844 51.6 341.964 51.76 340.817 51.68L339.697 51.6C335.031 51.2267 332.697 48.7867 332.697 44.28V36.36H331.097C330.217 36.36 329.551 36.1733 329.097 35.8C328.644 35.4 328.417 34.84 328.417 34.12C328.417 33.3733 328.644 32.8133 329.097 32.44C329.551 32.04 330.217 31.84 331.097 31.84H332.697V28.72C332.697 27.84 332.964 27.1467 333.497 26.64C334.057 26.1333 334.804 25.88 335.737 25.88C336.671 25.88 337.404 26.1333 337.937 26.64C338.471 27.1467 338.737 27.84 338.737 28.72V31.84H341.537C343.351 31.84 344.257 32.6 344.257 34.12C344.257 34.84 344.031 35.4 343.577 35.8C343.124 36.1733 342.444 36.36 341.537 36.36H338.737V44.72C338.737 45.52 338.924 46.1333 339.297 46.56C339.671 46.96 340.217 47.1867 340.937 47.24L342.057 47.32Z" fill="#15C3D6"/>
<path d="M361.178 51.48C360.244 51.48 359.524 51.2267 359.018 50.72C358.511 50.2133 358.258 49.4933 358.258 48.56V26.16C358.258 25.2267 358.538 24.48 359.098 23.92C359.658 23.36 360.418 23.08 361.378 23.08C362.338 23.08 363.098 23.36 363.658 23.92C364.218 24.48 364.498 25.2267 364.498 26.16V46.4H374.738C376.684 46.4 377.658 47.2533 377.658 48.96C377.658 50.64 376.684 51.48 374.738 51.48H361.178Z" fill="#15C3D6"/>
<path d="M395.882 45.64C396.415 45.64 396.842 45.8533 397.162 46.28C397.508 46.7067 397.682 47.2533 397.682 47.92C397.682 48.3733 397.548 48.8 397.282 49.2C397.015 49.5733 396.642 49.8933 396.162 50.16C395.255 50.64 394.202 51.04 393.002 51.36C391.802 51.6533 390.695 51.8 389.682 51.8C387.548 51.8 385.682 51.3867 384.082 50.56C382.508 49.7333 381.295 48.56 380.442 47.04C379.588 45.4933 379.162 43.68 379.162 41.6C379.162 39.6 379.575 37.8267 380.402 36.28C381.228 34.7333 382.375 33.5333 383.842 32.68C385.308 31.8 386.975 31.36 388.842 31.36C390.628 31.36 392.188 31.76 393.522 32.56C394.882 33.3333 395.935 34.4533 396.682 35.92C397.428 37.36 397.802 39.0533 397.802 41C397.802 41.5867 397.655 42.04 397.362 42.36C397.095 42.6533 396.708 42.8 396.202 42.8H385.002C385.188 44.3733 385.668 45.52 386.442 46.24C387.215 46.9333 388.322 47.28 389.762 47.28C390.535 47.28 391.228 47.1867 391.842 47C392.455 46.8133 393.135 46.56 393.882 46.24C394.255 46.08 394.615 45.9467 394.962 45.84C395.308 45.7067 395.615 45.64 395.882 45.64ZM389.002 35.52C387.855 35.52 386.935 35.8933 386.242 36.64C385.548 37.36 385.135 38.4133 385.002 39.8H392.722C392.642 38.3867 392.282 37.32 391.642 36.6C391.028 35.88 390.148 35.52 389.002 35.52Z" fill="#15C3D6"/>
<path d="M414.459 33.16C414.726 32.6 415.072 32.1867 415.499 31.92C415.952 31.6267 416.432 31.48 416.939 31.48C417.686 31.48 418.352 31.7333 418.939 32.24C419.526 32.72 419.819 33.3067 419.819 34C419.819 34.4 419.726 34.7867 419.539 35.16L412.339 49.92C412.072 50.5067 411.672 50.96 411.139 51.28C410.606 51.5733 410.032 51.72 409.419 51.72C408.806 51.72 408.232 51.5733 407.699 51.28C407.166 50.96 406.752 50.5067 406.459 49.92L399.259 35.16C399.099 34.7867 399.019 34.4267 399.019 34.08C399.019 33.36 399.326 32.7467 399.939 32.24C400.579 31.7333 401.286 31.48 402.059 31.48C402.619 31.48 403.126 31.6267 403.579 31.92C404.032 32.1867 404.392 32.6 404.659 33.16L409.579 43.92L414.459 33.16Z" fill="#15C3D6"/>
<path d="M437.796 45.64C438.329 45.64 438.756 45.8533 439.076 46.28C439.422 46.7067 439.596 47.2533 439.596 47.92C439.596 48.3733 439.462 48.8 439.196 49.2C438.929 49.5733 438.556 49.8933 438.076 50.16C437.169 50.64 436.116 51.04 434.916 51.36C433.716 51.6533 432.609 51.8 431.596 51.8C429.462 51.8 427.596 51.3867 425.996 50.56C424.422 49.7333 423.209 48.56 422.356 47.04C421.502 45.4933 421.076 43.68 421.076 41.6C421.076 39.6 421.489 37.8267 422.316 36.28C423.142 34.7333 424.289 33.5333 425.756 32.68C427.222 31.8 428.889 31.36 430.756 31.36C432.542 31.36 434.102 31.76 435.436 32.56C436.796 33.3333 437.849 34.4533 438.596 35.92C439.342 37.36 439.716 39.0533 439.716 41C439.716 41.5867 439.569 42.04 439.276 42.36C439.009 42.6533 438.622 42.8 438.116 42.8H426.916C427.102 44.3733 427.582 45.52 428.356 46.24C429.129 46.9333 430.236 47.28 431.676 47.28C432.449 47.28 433.142 47.1867 433.756 47C434.369 46.8133 435.049 46.56 435.796 46.24C436.169 46.08 436.529 45.9467 436.876 45.84C437.222 45.7067 437.529 45.64 437.796 45.64ZM430.916 35.52C429.769 35.52 428.849 35.8933 428.156 36.64C427.462 37.36 427.049 38.4133 426.916 39.8H434.636C434.556 38.3867 434.196 37.32 433.556 36.6C432.942 35.88 432.062 35.52 430.916 35.52Z" fill="#15C3D6"/>
<path d="M446.404 51.72C445.524 51.72 444.79 51.48 444.204 51C443.644 50.52 443.364 49.8133 443.364 48.88V25.92C443.364 24.9867 443.644 24.28 444.204 23.8C444.79 23.32 445.524 23.08 446.404 23.08C447.257 23.08 447.964 23.32 448.524 23.8C449.11 24.28 449.404 24.9867 449.404 25.92V48.88C449.404 49.8133 449.11 50.52 448.524 51C447.964 51.48 447.257 51.72 446.404 51.72Z" fill="#15C3D6"/>
<path d="M500.64 24.96C500.88 24.32 501.24 23.84 501.72 23.52C502.226 23.1733 502.786 23 503.4 23C504.173 23 504.826 23.24 505.36 23.72C505.92 24.2 506.2 24.8533 506.2 25.68C506.2 26.08 506.12 26.52 505.96 27L497.64 49.76C497.4 50.4 496.973 50.9067 496.36 51.28C495.773 51.6267 495.12 51.8 494.4 51.8C493.68 51.8 493.026 51.6267 492.44 51.28C491.853 50.9067 491.44 50.4 491.2 49.76L485.24 32.92L479.12 49.76C478.88 50.4 478.466 50.9067 477.88 51.28C477.293 51.6267 476.64 51.8 475.92 51.8C475.226 51.8 474.573 51.6267 473.96 51.28C473.373 50.9067 472.96 50.4 472.72 49.76L464.4 27C464.24 26.5467 464.16 26.12 464.16 25.72C464.16 24.8933 464.453 24.24 465.04 23.76C465.626 23.2533 466.32 23 467.12 23C467.76 23 468.333 23.1733 468.84 23.52C469.373 23.84 469.76 24.32 470 24.96L476.16 42.68L482.56 25.04C482.8 24.4 483.173 23.9067 483.68 23.56C484.213 23.2133 484.773 23.04 485.36 23.04C485.973 23.04 486.533 23.2133 487.04 23.56C487.546 23.9067 487.92 24.4133 488.16 25.08L494.28 43L500.64 24.96Z" fill="#15C3D6"/>
<path d="M523.186 45.64C523.72 45.64 524.146 45.8533 524.466 46.28C524.813 46.7067 524.986 47.2533 524.986 47.92C524.986 48.3733 524.853 48.8 524.586 49.2C524.32 49.5733 523.946 49.8933 523.466 50.16C522.56 50.64 521.506 51.04 520.306 51.36C519.106 51.6533 518 51.8 516.986 51.8C514.853 51.8 512.986 51.3867 511.386 50.56C509.813 49.7333 508.6 48.56 507.746 47.04C506.893 45.4933 506.466 43.68 506.466 41.6C506.466 39.6 506.88 37.8267 507.706 36.28C508.533 34.7333 509.68 33.5333 511.146 32.68C512.613 31.8 514.28 31.36 516.146 31.36C517.933 31.36 519.493 31.76 520.826 32.56C522.186 33.3333 523.24 34.4533 523.986 35.92C524.733 37.36 525.106 39.0533 525.106 41C525.106 41.5867 524.96 42.04 524.666 42.36C524.4 42.6533 524.013 42.8 523.506 42.8H512.306C512.493 44.3733 512.973 45.52 513.746 46.24C514.52 46.9333 515.626 47.28 517.066 47.28C517.84 47.28 518.533 47.1867 519.146 47C519.76 46.8133 520.44 46.56 521.186 46.24C521.56 46.08 521.92 45.9467 522.266 45.84C522.613 45.7067 522.92 45.64 523.186 45.64ZM516.306 35.52C515.16 35.52 514.24 35.8933 513.546 36.64C512.853 37.36 512.44 38.4133 512.306 39.8H520.026C519.946 38.3867 519.586 37.32 518.946 36.6C518.333 35.88 517.453 35.52 516.306 35.52Z" fill="#15C3D6"/>
<path d="M544.514 45.64C545.048 45.64 545.474 45.8533 545.794 46.28C546.141 46.7067 546.314 47.2533 546.314 47.92C546.314 48.3733 546.181 48.8 545.914 49.2C545.648 49.5733 545.274 49.8933 544.794 50.16C543.888 50.64 542.834 51.04 541.634 51.36C540.434 51.6533 539.328 51.8 538.314 51.8C536.181 51.8 534.314 51.3867 532.714 50.56C531.141 49.7333 529.928 48.56 529.074 47.04C528.221 45.4933 527.794 43.68 527.794 41.6C527.794 39.6 528.208 37.8267 529.034 36.28C529.861 34.7333 531.008 33.5333 532.474 32.68C533.941 31.8 535.608 31.36 537.474 31.36C539.261 31.36 540.821 31.76 542.154 32.56C543.514 33.3333 544.568 34.4533 545.314 35.92C546.061 37.36 546.434 39.0533 546.434 41C546.434 41.5867 546.288 42.04 545.994 42.36C545.728 42.6533 545.341 42.8 544.834 42.8H533.634C533.821 44.3733 534.301 45.52 535.074 46.24C535.848 46.9333 536.954 47.28 538.394 47.28C539.168 47.28 539.861 47.1867 540.474 47C541.088 46.8133 541.768 46.56 542.514 46.24C542.888 46.08 543.248 45.9467 543.594 45.84C543.941 45.7067 544.248 45.64 544.514 45.64ZM537.634 35.52C536.488 35.52 535.568 35.8933 534.874 36.64C534.181 37.36 533.768 38.4133 533.634 39.8H541.354C541.274 38.3867 540.914 37.32 540.274 36.6C539.661 35.88 538.781 35.52 537.634 35.52Z" fill="#15C3D6"/>
<path d="M568.603 46.8C569.216 47.3867 569.522 48.0533 569.522 48.8C569.522 49.5467 569.242 50.2133 568.682 50.8C568.149 51.3867 567.522 51.68 566.802 51.68C566.109 51.68 565.469 51.4 564.883 50.84L556.122 42.72V48.84C556.122 49.7733 555.829 50.48 555.242 50.96C554.682 51.44 553.976 51.68 553.122 51.68C552.242 51.68 551.509 51.44 550.922 50.96C550.362 50.48 550.082 49.7733 550.082 48.84V25.92C550.082 24.9867 550.362 24.28 550.922 23.8C551.509 23.32 552.242 23.08 553.122 23.08C553.976 23.08 554.682 23.32 555.242 23.8C555.829 24.28 556.122 24.9867 556.122 25.92V40.24L564.122 32.36C564.709 31.7733 565.362 31.48 566.082 31.48C566.829 31.48 567.483 31.76 568.043 32.32C568.603 32.8533 568.883 33.4933 568.883 34.24C568.883 34.9333 568.576 35.5867 567.962 36.2L562.642 41.28L568.603 46.8Z" fill="#15C3D6"/>
<path fill-rule="evenodd" clip-rule="evenodd" d="M105.488 22.7864C103.168 22.7864 100.414 23.2783 97.4059 26.7662V17.0051C97.4059 14.5392 95.4046 12.5333 92.9443 12.5333C90.484 12.5333 88.4827 14.5392 88.4827 17.0051V48.8375C88.4827 51.3033 90.484 53.3092 92.9443 53.3092C95.4046 53.3092 97.4059 51.3033 97.4059 48.8375V36.4827C97.4059 32.9309 99.0886 30.9697 102.154 30.9697C105.156 30.9697 106.737 32.8734 106.737 36.4827V48.8375C106.737 51.3033 108.738 53.3092 111.199 53.3092C113.659 53.3092 115.66 51.3033 115.66 48.8375V33.8891C115.654 26.9387 111.855 22.7864 105.488 22.7864ZM131.111 23.0037C127.478 23.0037 124.597 23.4764 121.773 24.5369C120.307 25.0863 119.326 26.5044 119.326 28.0632C119.326 30.1457 120.977 31.7747 123.086 31.7747C123.52 31.7747 123.883 31.7108 124.38 31.5447C126.095 31.0081 127.905 30.7526 129.925 30.7526C134.718 30.7526 135.738 33.4037 135.751 35.646C134.087 35.103 131.99 34.6047 129.065 34.6047C121.442 34.6047 117.069 38.099 117.069 44.1998V44.3084C117.069 49.8214 121.2 53.5266 127.344 53.5266C130.805 53.5266 133.578 52.4725 135.789 50.3133C136.165 51.8912 137.676 53.3157 139.996 53.3157C142.437 53.3157 144.349 51.4248 144.349 49.0101V35.8312C144.349 31.6853 143.266 28.4912 141.118 26.3447C138.9 24.128 135.534 23.0037 131.111 23.0037ZM129.817 47.1192C127.287 47.1192 125.719 45.9182 125.719 43.9826V43.874C125.719 41.5678 127.644 40.2519 131.003 40.2519C132.723 40.2519 134.438 40.5904 135.859 41.2037V42.4239C135.859 45.1836 133.374 47.1192 129.817 47.1192ZM156.306 26.8433C158.613 24.1155 161.456 22.7867 164.974 22.7867C171.686 22.7867 178.474 28.0442 178.474 38.0993V38.2079C178.474 42.8393 177.053 46.7617 174.369 49.5597C171.915 52.1214 168.582 53.5268 164.974 53.5268C161.501 53.5268 158.741 52.3386 156.351 49.8089V57.4747C156.351 59.9406 154.349 61.9464 151.889 61.9464C149.429 61.9464 147.427 59.9406 147.427 57.4747V27.4757C147.427 25.0098 149.429 23.0039 151.889 23.0039C154.139 23.0039 156 24.6777 156.306 26.8433ZM169.557 38.0993C169.557 33.7617 166.683 30.4845 162.871 30.4845C159.034 30.4845 156.242 33.685 156.242 38.0993V38.2079C156.242 42.6221 159.028 45.8226 162.871 45.8226C166.746 45.8226 169.557 42.6221 169.557 38.2079V38.0993ZM198.08 22.7867C194.561 22.7867 191.719 24.1155 189.411 26.8433C189.105 24.6777 187.244 23.0039 184.994 23.0039C182.534 23.0039 180.533 25.0098 180.533 27.4757V57.4747C180.533 59.9406 182.534 61.9464 184.994 61.9464C187.455 61.9464 189.456 59.9406 189.456 57.4747V49.8089C191.846 52.3386 194.606 53.5268 198.08 53.5268C201.687 53.5268 205.021 52.1214 207.475 49.5597C210.158 46.7617 211.579 42.8393 211.579 38.2079V38.0993C211.579 28.0442 204.791 22.7867 198.08 22.7867ZM195.976 30.4845C199.788 30.4845 202.662 33.7617 202.662 38.0993V38.2079C202.662 42.6221 199.852 45.8226 195.976 45.8226C192.133 45.8226 189.348 42.6221 189.348 38.2079V38.0993C189.348 33.685 192.139 30.4845 195.976 30.4845ZM231.485 26.3768C232.313 24.1664 233.792 23.0038 235.761 23.0038C238.139 23.0038 240.006 24.8244 240 27.137C240 27.8077 239.783 28.7787 239.592 29.2259L229.528 53.45C226.998 59.589 224.359 61.7674 219.445 61.7674C217.711 61.7674 216.379 61.5374 214.849 60.9881C213.797 60.6048 212.026 59.6082 212.026 57.2446C212.026 54.9193 213.855 53.533 215.62 53.533C216.321 53.533 216.742 53.6544 217.08 53.7694C217.775 53.9866 218.157 54.076 218.686 54.076C220.025 54.076 220.586 53.8588 221.261 52.562L221.465 52.0765L211.675 29.3409C211.452 28.7787 211.216 27.9099 211.216 27.303C211.216 24.85 213.109 22.9974 215.62 22.9974C217.692 22.9974 219.094 24.0834 219.897 26.3193L225.793 42.2067L231.485 26.3768Z" fill="white"/>
<path d="M63.9739 18.7786V44.9078C63.9739 55.2784 55.5339 63.6863 45.1237 63.6863H43.217L33.4805 73.3795C33.0992 73.7594 32.5717 74 31.987 74C31.4467 74 30.9574 73.8037 30.5824 73.4745L30.4172 73.3099L30.4108 73.3036L20.7569 63.6863H18.8439C8.44003 63.6863 0 55.2784 0 44.9078V18.7786C0 8.40794 8.44003 0 18.8503 0H45.1237C55.5339 0 63.9739 8.40794 63.9739 18.7786Z" fill="#FFD666"/>
<path d="M14.895 36.197C13.0392 36.197 11.9814 38.3036 13.0582 39.8248C17.2449 45.7501 24.1677 49.6133 31.99 49.6133C39.8123 49.6133 46.7289 45.7437 50.9155 39.8248C51.9923 38.3036 50.9345 36.197 49.0787 36.197H14.895Z" fill="white"/>
<path d="M25.764 27.2298H14.5658V21.6036C14.5658 18.4977 17.074 15.9774 20.1649 15.9774C23.2558 15.9774 25.764 18.4977 25.764 21.6036V27.2298Z" fill="white"/>
<path d="M49.4149 27.2298H38.2167V21.6036C38.2167 18.4977 40.7249 15.9774 43.8158 15.9774C46.9067 15.9774 49.4149 18.4977 49.4149 21.6036V27.2298Z" fill="white"/>
</svg>
